<svg version="1.1" xmlns="http://www.w3.org/2000/svg" style="display: block;" viewBox="0 0 2033 2048" width="1231" height="1240" preserveAspectRatio="none">
<defs>
	<linearGradient id="Gradient1" gradientUnits="userSpaceOnUse" x1="971.769" y1="1955.3" x2="1419.32" y2="1682.38">
		<stop class="stop0" offset="0" stop-opacity="1" stop-color="rgb(0,118,126)"/>
		<stop class="stop1" offset="1" stop-opacity="1" stop-color="rgb(0,141,147)"/>
	</linearGradient>
	<linearGradient id="Gradient2" gradientUnits="userSpaceOnUse" x1="835.282" y1="641.133" x2="1011.53" y2="490.863">
		<stop class="stop0" offset="0" stop-opacity="1" stop-color="rgb(0,16,23)"/>
		<stop class="stop1" offset="1" stop-opacity="1" stop-color="rgb(0,84,92)"/>
	</linearGradient>
	<linearGradient id="Gradient3" gradientUnits="userSpaceOnUse" x1="507.868" y1="1436.36" x2="312.002" y2="380.039">
		<stop class="stop0" offset="0" stop-opacity="1" stop-color="rgb(0,121,130)"/>
		<stop class="stop1" offset="1" stop-opacity="1" stop-color="rgb(0,173,174)"/>
	</linearGradient>
</defs>
<path transform="translate(0,0)" fill="rgb(0,56,63)" d="M 1002.21 0 L 1046.61 0 C 1054.17 1.56607 1065.14 1.37511 1073.06 1.7383 C 1085.03 2.35866 1096.99 3.28007 1108.92 4.50166 C 1154.98 9.30999 1200.71 16.8902 1245.86 27.2011 C 1314.88 42.9461 1382.01 66.0636 1446.08 96.1553 C 1615.13 175.442 1742.77 288.284 1848.68 441.032 C 2003.02 661.699 2063.65 934.528 2017.29 1199.8 C 1969.54 1470.17 1814.98 1709.94 1588.44 1865.06 C 1373.75 2016.5 1107.61 2076.26 848.787 2031.13 C 576.095 1979.31 335.098 1821.43 178.681 1592.12 C 93.0364 1468.89 36.4072 1327.86 13.0402 1179.61 C 8.59726 1152.16 5.34115 1124.53 3.28097 1096.8 C 2.73894 1089.32 1.05642 1048.43 0 1044.68 L 0 995.22 C 1.26006 989.855 2.63752 950.771 3.23042 941.977 C 5.20051 915.057 8.31339 888.232 12.5606 861.576 C 35.4905 710.365 93.5902 566.646 182.186 441.981 C 327.299 236.096 551.007 80.6926 797.99 26.7974 C 843.086 16.8475 888.706 9.44063 934.634 4.61172 C 948.243 3.37064 961.876 2.40789 975.524 1.72408 C 983.676 1.33555 994.412 1.58322 1002.21 0 z"/>
<path transform="translate(0,0)" fill="rgb(254,254,253)" d="M 529.989 210.774 C 532.642 205.705 549.796 196.979 555.631 193.683 C 613.217 160.71 674.215 134.092 737.552 114.299 C 974.125 39.3042 1230.79 61.2915 1451.17 175.43 C 1678.68 293.653 1849.56 497.847 1925.84 742.642 C 2000.29 981.035 1977.38 1239.21 1862.09 1460.76 C 1844.76 1493.63 1825.5 1525.44 1804.4 1556.02 C 1801.22 1560.68 1793.32 1572.91 1789.69 1576.44 C 1789.28 1574.6 1788.84 1572.77 1788.55 1570.92 C 1776.23 1587.6 1765.72 1597.01 1749.07 1608.88 C 1715.64 1593.94 1681.79 1578.28 1647.51 1565.3 C 1629.5 1558.48 1611.9 1553.33 1593.08 1559.96 C 1618.75 1635.19 1683.18 1628.57 1711.05 1674.45 C 1703.01 1699.39 1684.71 1723.41 1666.76 1742.09 C 1626.14 1728.55 1585.74 1710.93 1546 1695.13 C 1528.42 1688.14 1507.93 1679.32 1490.07 1673.67 C 1512.36 1722.35 1588.59 1750.71 1635.93 1769.09 C 1627.98 1776.07 1620.58 1782.23 1611.73 1788.05 C 1574.97 1812.54 1520.52 1808.28 1485.58 1782.58 C 1474.06 1774.11 1460.77 1755.01 1451.65 1743.2 C 1439.1 1726.65 1426.32 1710.28 1413.33 1694.08 C 1393.33 1669.5 1394.09 1672.46 1364.34 1662.27 L 1306.47 1642.71 L 1068.41 1564.66 L 996.234 1541.34 C 973.827 1534.08 950.925 1527.27 929.961 1516.34 C 898 1499.67 846.999 1459.09 827.965 1427.91 C 807.128 1393.78 836.688 1231.69 846.521 1189.56 C 842.663 1193.95 838.934 1198.45 835.337 1203.05 C 800.448 1247.63 768.005 1308.26 745.224 1359.69 C 668.393 1530.34 639.876 1718.81 662.78 1904.55 C 546.082 1854.15 433.637 1773.77 345.541 1682.62 C 320.371 1656.58 298.733 1630.81 275.847 1602.99 C 359.757 1411.8 503.608 1240.47 671.899 1116.43 C 698.748 1096.64 730.42 1077.03 764.227 1074.19 C 742.387 1068.59 718.996 1063.81 696.923 1058.79 L 575.398 1030.51 C 577.334 1034.18 627.627 1056.7 635.523 1061.26 C 467.936 1179.26 309.149 1325.12 197.873 1498.48 C 184.769 1480.34 160.922 1432.3 151.356 1411.93 C 74.8 1247.76 48.3035 1064.69 75.1749 885.554 C 99.4456 722.889 165.877 569.412 267.863 440.386 C 276.111 429.813 314.859 382.25 324.09 375.386 C 339.569 361.762 352.639 342.155 371.07 327.597 C 372.957 325.642 375.246 323.679 377.279 321.835 C 411.257 290.188 448.229 263.203 486.063 236.516 C 520.835 257.229 554.83 279.219 587.979 302.441 C 602.004 312.246 615.257 322.735 629.089 332.579 C 619.391 313.652 512.726 254.17 490.001 235.639 C 497.829 228.501 512.843 221.988 521.782 215.604 C 524.506 213.658 527.596 213.225 529.989 210.774 z"/>
<path transform="translate(0,0)" fill="rgb(0,162,165)" d="M 529.989 210.774 C 532.642 205.705 549.796 196.979 555.631 193.683 C 613.217 160.71 674.215 134.092 737.552 114.299 C 974.125 39.3042 1230.79 61.2915 1451.17 175.43 C 1678.68 293.653 1849.56 497.847 1925.84 742.642 C 2000.29 981.035 1977.38 1239.21 1862.09 1460.76 C 1844.76 1493.63 1825.5 1525.44 1804.4 1556.02 C 1801.22 1560.68 1793.32 1572.91 1789.69 1576.44 C 1789.28 1574.6 1788.84 1572.77 1788.55 1570.92 C 1787.75 1558.84 1784.21 1547.11 1778.19 1536.62 C 1770.36 1523.2 1737.51 1484.52 1725.6 1469.94 L 1616.05 1336.04 L 1548.07 1252.48 C 1540.46 1243.14 1508.77 1206.77 1505.72 1196.89 C 1493.39 1156.98 1494.7 1084.85 1484.17 1047.06 C 1481.88 1038.81 1433.31 989.665 1424.26 981.506 C 1396.73 956.684 1396.37 947.483 1378.64 915.427 C 1364.46 890.25 1349.75 865.376 1334.51 840.823 C 1273.26 741.743 1200.85 650.021 1118.68 567.458 C 990.9 439.672 826.821 324.171 659.101 255.465 C 649.56 251.557 597.717 231.456 589.733 231.45 C 577.418 225.892 542.379 213.361 529.989 210.774 z"/>
<path transform="translate(0,0)" fill="url(#Gradient3)" d="M 197.873 1498.48 C 184.769 1480.34 160.922 1432.3 151.356 1411.93 C 74.8 1247.76 48.3035 1064.69 75.1749 885.554 C 99.4456 722.889 165.877 569.412 267.863 440.386 C 276.111 429.813 314.859 382.25 324.09 375.386 C 349.153 392.211 373.496 407.941 397.915 425.854 C 526.635 519.823 638.649 634.755 729.277 765.848 C 740.912 782.415 779.206 837.146 784.871 853.647 C 772.719 845.913 758.508 831.995 746.853 822.521 C 719.284 799.697 690.947 777.816 661.891 756.918 C 528.745 663.591 369.686 614.365 207.099 616.169 C 244.836 754.542 314.476 904.299 443.956 978.265 C 472.977 994.631 503.575 1008.03 535.284 1018.25 C 547.853 1022.39 563.717 1026.32 575.398 1030.51 C 577.334 1034.18 627.627 1056.7 635.523 1061.26 C 467.936 1179.26 309.149 1325.12 197.873 1498.48 z"/>
<path transform="translate(0,0)" fill="url(#Gradient2)" d="M 529.989 210.774 C 542.379 213.361 577.418 225.892 589.733 231.45 C 891.799 365.672 1185.25 629.011 1337.48 923.585 C 1249.86 873.028 1182.75 846.92 1081.41 840.379 C 1075.81 833.571 1070.04 826.743 1064.83 819.639 C 1061.9 808.467 1029.93 758.988 1022.08 747.02 C 938.091 621.481 837.627 507.788 723.379 408.989 C 691.172 381.01 662.434 358.503 629.089 332.579 C 619.391 313.652 512.726 254.17 490.001 235.639 C 497.829 228.501 512.843 221.988 521.782 215.604 C 524.506 213.658 527.596 213.225 529.989 210.774 z"/>
<path transform="translate(0,0)" fill="rgb(0,56,63)" d="M 371.07 327.597 C 582 415.069 784.474 570.104 927.944 747.954 C 948.238 773.111 983.485 819.693 999.626 847.022 C 949.866 866.85 907.088 889.71 865.318 923.833 L 811.753 877.618 C 806.245 872.87 789.045 858.54 784.871 853.647 C 779.206 837.146 740.912 782.415 729.277 765.848 C 638.649 634.755 526.635 519.823 397.915 425.854 C 373.496 407.941 349.153 392.211 324.09 375.386 C 339.569 361.762 352.639 342.155 371.07 327.597 z"/>
<path transform="translate(0,0)" fill="rgb(0,162,165)" d="M 486.063 236.516 C 520.835 257.229 554.83 279.219 587.979 302.441 C 602.004 312.246 615.257 322.735 629.089 332.579 C 662.434 358.503 691.172 381.01 723.379 408.989 C 837.627 507.788 938.091 621.481 1022.08 747.02 C 1029.93 758.988 1061.9 808.467 1064.83 819.639 C 1059.41 815.274 1030.65 780.636 1024.04 773.161 C 997.523 743.172 970.073 714.017 941.733 685.741 C 803.432 548.956 643.503 425.065 461.958 351.752 C 434.129 340.514 405.79 331.141 377.279 321.835 C 411.257 290.188 448.229 263.203 486.063 236.516 z"/>
<path transform="translate(0,0)" fill="rgb(0,56,63)" d="M 970.508 1012.59 C 980.716 1015.28 996.56 1021.78 1006.54 1025.73 C 1025.94 1033.44 1045.29 1041.26 1064.61 1049.19 C 1105.9 1066.13 1147 1083.51 1187.92 1101.35 C 1199.33 1106.33 1211.09 1111.29 1222.31 1116.55 C 1249 1129.05 1277.43 1140.15 1300.24 1159.26 C 1316.12 1172.56 1327.99 1191.81 1338.55 1209.5 C 1343.27 1217.39 1347.58 1225.62 1353.49 1232.69 C 1380.58 1263.95 1408.11 1295 1435.4 1326.08 C 1479.88 1376.58 1523.73 1427.62 1566.94 1479.2 C 1542.75 1501.29 1518.96 1523.79 1495.55 1546.7 C 1468.85 1573.03 1452.04 1591.04 1428.28 1619.72 C 1426.14 1604.53 1423.58 1586.51 1419.7 1571.66 C 1397.72 1487.69 1354.15 1408.46 1305.56 1337.12 C 1293.95 1321.91 1276.89 1290.75 1259.91 1282.39 C 1217.3 1261.4 1145.42 1252.06 1110.26 1218.53 C 1085.89 1195.28 1064.05 1140.97 1049.32 1111.17 C 1044.49 1101.41 1040.56 1086.59 1034.5 1076.98 C 1016.59 1054.87 990.76 1032.88 970.508 1012.59 z"/>
<path transform="translate(0,0)" fill="rgb(254,254,253)" d="M 1115.5 1123.34 C 1129.74 1128.26 1249.62 1203.85 1261.29 1214.75 C 1233.7 1215.93 1213.68 1218.25 1186.48 1207.54 C 1148.33 1192.51 1130.74 1159.05 1115.5 1123.34 z"/>
<path transform="translate(0,0)" fill="rgb(0,56,63)" d="M 310.561 684.792 C 342.922 688.157 374.932 694.304 406.237 703.164 C 540.531 741.223 629.83 830.81 707.845 942.814 C 731.262 976.176 753.065 1010.64 773.18 1046.09 C 746.008 1036.69 713.725 1021.69 685.253 1011.01 C 636.591 992.741 585.313 975.226 538.268 953.416 C 414.291 895.941 355.617 810.188 310.561 684.792 z"/>
<path transform="translate(0,0)" fill="url(#Gradient1)" d="M 863.159 1967.33 C 859.268 1921.74 861.827 1879.86 874.562 1836.12 C 897.052 1758.88 948.534 1689.76 1027.16 1664.3 C 1059.66 1653.78 1090.86 1653.62 1124.52 1656.79 C 1183.98 1666.63 1236.46 1681.35 1293.43 1700.03 C 1349.71 1718.48 1387.65 1736.93 1427.35 1782.68 C 1452.54 1811.71 1477.98 1831.03 1517.86 1834.6 C 1383.48 1920.58 1229.22 1970.52 1069.94 1979.63 C 1052.09 1980.63 1000.31 1982.53 984.302 1980.3 C 943.496 1979.16 903.374 1973.81 863.159 1967.33 z"/>
<path transform="translate(0,0)" fill="rgb(254,254,253)" d="M 863.159 1967.33 C 859.268 1921.74 861.827 1879.86 874.562 1836.12 C 897.052 1758.88 948.534 1689.76 1027.16 1664.3 C 1059.66 1653.78 1090.86 1653.62 1124.52 1656.79 C 1111.69 1661.94 1100.44 1665.91 1088.07 1672.46 C 1043.65 1696.54 1008.77 1735.07 989.2 1781.66 C 961.151 1847.15 963.103 1913.74 984.302 1980.3 C 943.496 1979.16 903.374 1973.81 863.159 1967.33 z"/>
</svg>