<?xml version="1.0" encoding="UTF-8"?>
<svg id="Camada_1" xmlns="http://www.w3.org/2000/svg" version="1.1" viewBox="0 0 1452 1452">
  <!-- Generator: Adobe Illustrator 30.3.0, SVG Export Plug-In . SVG Version: 2.1.3 Build 182)  -->
  <defs>
    <style>
      .st0 {
        fill: #239990;
      }

      .st1 {
        fill: #229a91;
      }

      .st2 {
        fill: #b1d3d1;
      }

      .st3 {
        fill: #229991;
      }

      .st4 {
        fill: #b2d3d2;
      }

      .st5 {
        fill: #409a93;
      }

      .st6 {
        fill: #269a91;
      }
    </style>
  </defs>
  <path class="st4" d="M1252.37,498.7c-23.16-50.92-54.25-95.93-90.37-138.57,14.62-23.09,27.63-46.65,36.68-73.23,2.89,2.71,5.08,4.61,7.1,6.68,28.24,29,52.59,61.05,74.62,94.95,17.17,26.43,32.84,53.74,46.14,82.27,16.94,36.33,31.49,73.7,41.92,112.45,7.3,27.11,13.99,54.46,17.3,82.44,1.95,16.44,3.87,32.89,5.22,49.38,1.09,13.28,1.24,26.64,1.94,39.95.34,6.5,1.99,13.09,1.3,19.44-2.43,22.38-1.98,44.89-4.45,67.33-4.13,37.47-10.69,74.37-20.34,110.71-7.92,29.82-17.84,59.04-30.08,87.44-16.25,37.68-35.34,73.89-58.09,107.97-13.8,20.67-29,40.5-44.81,59.69-15.44,18.75-31.69,36.96-48.95,54.04-18.09,17.9-37.35,34.63-57.7,50.09-23.89,18.14-48.36,35.32-74.23,50.52-30.46,17.89-61.65,34.42-94.8,46.7-24.17,8.95-48.62,17.4-73.45,24.24-21.33,5.88-43.34,9.33-65.1,13.55-9.53,1.85-19.21,2.93-29.55,4.47.5-4.85,3.57-6.47,5.7-8.55,7.48-7.29,14.64-14.74,18.99-24.48,3.79-8.5,6.58-17.21,6.18-26.62-.5-11.83-1.25-23.66-1.87-35.49-.55-10.43,2.61-19.95,7.85-28.72,8.21-13.75,16.48-27.48,25.26-40.86,12.62-19.22,23.3-39.3,29.79-61.46.75-2.55,1.83-5.02,2.89-7.46.33-.76,1.1-1.33,2.64-3.11,1.11,4.98,2.58,9.02,2.84,13.14,1.37,21.36,5.28,42.27,11.04,62.83,3.61,12.87,9.27,24.89,16.64,36.92,6.71-2.65,13.07-4.94,19.24-7.65,31.55-13.83,62.26-29.21,91.48-47.61,24.66-15.52,48.33-32.38,69.65-52.13,20.66-19.14,40.25-39.45,59.9-59.65,18.87-19.4,34.43-41.49,49.52-63.87,19.61-29.08,36.58-59.73,50.65-91.8,15.98-36.43,28.93-73.97,37.18-113.03,4.77-22.58,8.58-45.24,11.01-68.25,2.78-26.35,3.93-52.68,2.97-79.05-.73-20.07-3.17-40.08-4.91-60.11-3.07-35.31-11.97-69.43-22.32-103.1-6.43-20.92-15.19-41.13-23.15-61.56-2.69-6.9-6.1-13.52-9.49-20.87l.02.03Z"/>
  <path class="st1" d="M1048.27,3.35c2.83,1.4,6,2.35,8.42,4.26,35.34,27.93,64.46,61.37,88.09,99.71,15.99,25.95,29.09,53.02,36.3,82.87,9.67,40.04,5.76,78.6-11.94,115.51-16.09,33.56-35.95,65.02-57.31,95.43-32.66,46.5-63.9,93.87-89.92,144.44-20.12,39.1-38.03,79.24-53.86,120.32-27.98,72.59-47.57,147.48-62.38,223.72-3.23,16.62-6.3,33.27-9.14,49.96-2.07,12.13-9.38,19.44-20.94,21.34-27.72,4.54-54.42,2-79.09-13.16-11.07-6.8-15.96-15.6-14.72-28.85,5.87-63.12,14.86-125.66,32.7-186.68,21.77-74.48,53.47-144.32,99.28-207.14,17.65-24.21,37.54-46.81,56.88-69.75,43.67-51.82,87.68-103.34,131.43-155.09,13.16-15.57,22.78-33.22,30.09-52.28,9.35-24.4,10.37-49.1,4.78-74.44-4.59-20.8-12.09-40.48-22.67-58.82-16.33-28.3-33.3-56.23-50.04-84.3-5.17-8.67-10.47-17.27-15.8-26.52-.08-.61-.13-.55-.13-.55l-.03.02Z"/>
  <path class="st3" d="M786.3,1134.89c-18.21,28.08-28.92,57.9-28.66,91.06.15,18.6,4.35,36.66,9.94,54.19,7.58,23.75,16.22,47.17,24.94,70.53,4.62,12.38,8.36,24.77,7.82,38.11-.53,13.3-5.13,24.83-14.68,34.37-32.42,32.39-79.64,34.08-114.38,4.37-15.73-13.46-21.55-30.24-18.07-50.21,1.52-8.73,4.34-17.26,6.92-25.77,9.41-30.98,19.7-61.7,28.32-92.9,15.13-54.78-.42-101.93-37.98-142.95-9.43-10.3-19.47-20.07-28.5-30.69-22.22-26.13-36.27-56.27-42.51-90.01-.15-.84.11-1.75.26-3.75,4.35-1.45,8.98-3.2,13.72-4.56,25.13-7.19,50.28-14.28,75.42-21.43,2.86-.81,5.93-1.37,8.42-2.86,8-4.79,14.3-2.22,20.81,3.28,8.82,7.46,18.18,14.29,27.85,21.82,8.45-6.82,16.62-13.58,24.96-20.13,15.57-12.21,9.6-11.45,29.18-5.53,30.43,9.21,60.81,18.55,91.21,27.87,2.51.77,4.94,1.78,7.16,2.59.1.84.26,1.19.15,1.41-14.21,30.7-26.96,62.21-47.74,89.36-6.48,8.47-14.09,16.08-21.07,24.17-7.76,8.99-15.41,18.08-23.47,27.66M737.3,1346.68c-14.87-1.12-29.63-.7-44.09,3.33-8.67,2.42-10.94,7.24-7.14,15.32,1.23,2.6,3.2,4.98,5.24,7.04,4.59,4.63,9.21,9.28,14.24,13.41,13.39,10.96,16.96,25.09,14.21,41.49-.48,2.85-.79,5.72-1.3,9.45h15.17c-.45-5.56-.73-10.51-1.26-15.42-1.62-15.15,3.77-27.21,15.57-36.71,4.61-3.71,8.99-7.76,13.13-11.99,2.44-2.5,4.73-5.43,6.16-8.59,3.02-6.66.69-11.76-6.5-13.52-7.16-1.75-14.56-2.52-23.45-3.81h.02Z"/>
  <path class="st2" d="M1006.67,232.21c-23.34-13.23-47-24.23-71.29-33.96-32.31-12.94-65.62-22.33-99.73-29-24.7-4.83-49.56-8.5-74.8-9.11-15.71-.38-31.44-1.92-47.1-1.35-18.89.69-37.71,3.16-56.57,4.71-21.59,1.77-42.81,5.74-63.79,10.98-13.79,3.45-27.62,6.88-41.16,11.15-29.19,9.2-57.33,21.18-84.58,35.03-33.92,17.25-65.73,37.94-95.48,61.73-4.64,3.71-5.88,4.14-9.52-.57-5.22-6.78-9.95-14.02-14.15-21.48-6.72-11.94-11.18-24.78-14.19-38.2-1.09-4.87-.19-7.64,3.93-10.33,15.88-10.36,31.26-21.53,47.46-31.36,16.73-10.15,33.87-19.76,51.4-28.45,44-21.81,89.93-38.63,137.72-50.02,18.11-4.32,36.4-8.26,54.82-10.85,20.48-2.88,41.19-4.23,61.83-5.84,12.4-.97,24.86-1.56,37.29-1.64,23.13-.15,46.06,2.56,69.06,4.76,33.44,3.19,66.29,9.32,98.46,18.49,24.49,6.98,48.65,15.37,72.43,24.5,19.36,7.43,38.36,16.09,56.76,25.67,19.71,10.27,38.67,22.01,57.66,33.6,10.35,6.32,19.92,13.92,30.16,20.46,4.27,2.73,5.3,6.09,4.64,10.51-.39,2.63-.97,5.24-1.66,7.81-5.7,21.18-15.44,40.26-30.14,57.89-25.18-20.3-50.97-39.14-79.48-55.13h.02Z"/>
  <path class="st1" d="M411.29,783.07c31.06,35.5,51.64,76.19,66.21,119.96,9.57,28.73,17.54,57.99,26.14,87.04.84,2.83,1.36,5.81,1.61,8.76.5,5.98-2.53,9.12-8.47,8.47-3.19-.35-6.52-1.24-9.33-2.73-6.81-3.6-13.78-7.13-19.94-11.69-31.53-23.34-63.26-46.46-94.12-70.68-48.12-37.78-86.52-83.54-110.84-140.28-7.84-18.29-16-36.45-23.58-54.85-2.47-5.99-4.03-12.45-5.18-18.85-1.74-9.69,2.81-16.01,12.35-18.5,8.1-2.11,15.97-.25,23.8,1.39,19.69,4.14,38.11,11.75,55.11,22.32,31.41,19.52,60.98,41.44,86.25,69.63h-.01Z"/>
  <path class="st0" d="M1019.65,968.37c-11.74,8.66-22.71,17.36-34.31,25.09-7.6,5.06-16.07,8.85-24.28,12.96-2.51,1.26-5.46,1.65-8.8,2.62-1.01-9.97,1.51-18.59,3.3-27.18,9.05-43.45,22.22-85.6,41.17-125.82,25.43-53.99,62.79-97.64,113.01-130.12,2.49-1.61,4.97-3.26,7.38-5,27.08-19.53,57.64-28.86,90.66-30.98,1.72-.11,3.47.14,5.95.25,1.23,8.45.68,16.64-.26,24.87-4.94,43.36-22.9,81.37-47.39,116.82-23.69,34.3-52.75,63.41-85.39,89.1-20.07,15.8-40.34,31.35-61.04,47.39h0Z"/>
  <path class="st6" d="M828.93,1286.27c-6.8,8.23-13.21,15.95-19.63,23.67-.6-.29-1.21-.58-1.81-.88.96-3.15,1.77-6.34,2.9-9.43,8.86-24.26,17.97-48.43,26.6-72.77,5.8-16.38,8.5-33.04,6.29-50.75-3.89-31.1,8.8-56.88,28.98-79.41,13.61-15.19,31.17-24.16,50.89-30.69.59,2.28,1.33,3.89,1.38,5.53.66,21.5-1.16,42.72-7.07,63.5-3.84,13.49-11.49,24.36-23.65,31.11-11.33,6.29-16.78,15.76-20.56,27.64-8.37,26.33-18.06,52.22-32.91,75.78-3.48,5.52-7.34,10.8-11.41,16.7Z"/>
  <path class="st6" d="M607.95,1198.85c.26.82.52,1.64.35,3.65,0,15.91,5.68,29.33,10.33,42.93,4.48,13.13,9.96,25.92,14.77,38.94,1.33,3.61,1.84,7.53,3.06,12.74-4.38-3.04-7.11-4.93-9.85-6.83,0,0,.26-.36.18-.67-.63-.66-1.18-1-1.74-1.34,0,0,.19-.06.06-.59-3.06-4.35-5.99-8.18-8.93-12,0,0,.2-.03.19-.62-1.86-4.62-3.46-8.8-5.62-12.67-10.39-18.63-19.7-37.74-25.43-58.36-3.66-13.17-10.62-24.4-19.08-34.83-1.37-1.69-3.75-2.57-5.66-3.83,0,0,.26-.37.17-.68-.66-.63-1.23-.94-1.8-1.26,0,0,.22-.14.1-.52-.69-.71-1.25-1.02-1.82-1.34,0,0,.19-.09.08-.48-.65-.75-1.18-1.1-1.71-1.45,0,0,.19-.04.15-.6-2.6-3.72-5.06-6.98-7.77-10.01-6.52-7.32-12.47-14.97-14.91-24.72-3.88-15.48-5.31-31.28-5.69-47.18-.05-1.99.44-3.99.65-5.72,4.44-2.38,7.78-.26,11.32,1.22,6.75,2.82,13.6,5.39,20.4,8.07,0,0-.16.11.02.61,6.67,6,13.84,10.88,19.53,17.12,12.46,13.65,22.23,29.24,25.71,47.63,1.94,10.23,3.95,20.58,1.54,31.49-1.48,6.69-2.92,14.47,1.38,21.28l.02.02Z"/>
  <path class="st5" d="M501.34,477.21c11.3,13.75,23.01,27.18,33.84,41.3,37.07,48.32,63.45,102.42,85.08,159.05,19.08,49.93,32.49,101.33,39.61,154.29,3.72,27.69,6.15,55.56,9.93,83.24,2.43,17.83-5.34,28.57-20.52,36.42-22.48,11.62-46.22,12.73-70.41,9.41-12.81-1.76-20.44-10.55-23.09-23.02-2.66-12.5-4.49-25.17-6.87-37.72-18.45-97.28-45.14-192.13-84.56-283.12-29.99-69.22-66.84-134.63-109.96-196.55-13.75-19.74-26.51-40.17-39.68-61.1.04-.81.46-1.21.95-.88,9.87,14.3,19.26,28.25,28.61,42.23,13.17,19.69,26.19,39.48,39.47,59.09,14.11,20.82,27.03,42.34,38.93,64.48,7.4,13.77,14.97,27.49,21.73,41.57,9.32,19.41,18.14,39.07,26.83,58.78,5.34,12.12,10.24,24.44,14.93,36.82,4.62,12.18,8.81,24.53,13.02,36.87,5.83,17.1,11.55,34.24,17.22,51.4,2.41,7.29,4.92,14.58,6.79,22.02,4.54,18.07,8.88,36.19,13.02,54.36,4.46,19.59,8.75,39.22,12.83,58.89,3.47,16.76,6.68,33.57,9.69,50.41,1.5,8.41,5.4,15.89,12.81,19.08,7.34,3.17,15.94,3.73,24.07,4.59,4.6.49,9.38-1.19,14.06-1.08,14.36.35,27.64-3.35,39.84-10.55,5.48-3.23,11.82-6.12,14.26-12.79,2.47-6.75,3.43-13.76,2.56-20.98-.64-5.27-1.07-10.56-1.55-15.85-.72-7.95-1.1-15.94-2.18-23.84-2.04-14.9-4.41-29.76-6.76-44.61-2.12-13.4-3.91-26.88-6.71-40.14-3.11-14.73-6.89-29.33-10.94-43.83-4.53-16.22-9.43-32.34-14.67-48.34-3.41-10.38-8.17-20.32-11.56-30.71-8.78-26.91-22.22-51.71-34.77-76.86-10.84-21.73-23.83-42.3-38.95-61.43-9.53-12.06-18.91-24.25-28.24-36.48-3.37-4.42-6.39-9.1-9.35-13.84.22-.19.67-.56.67-.56l.02-.02Z"/>
  <path class="st5" d="M314.55,358.79c-9.8-16.16-19.77-32.31-28.86-48.95-7.13-13.05-12.51-26.91-16-41.48-6.39-26.65-4.97-53.05,1.38-79.47,7.48-31.07,22-58.91,38.9-85.66,23.38-37.02,52.73-68.79,86.26-96.78,2.68-2.24,5.91-3.83,9.71-6.24.21,3.92-1.75,6.07-3.16,8.33-11.96,19.16-24.33,38.07-35.89,57.46-17.04,28.57-34.39,56.97-45.43,88.7-15.95,45.85-9.99,88.74,17.81,127.99,16.29,23,34.73,44.47,52.26,66.59,4.8,6.05,9.79,11.94,14.72,18.67.02.77-.37,1.18-.87.87-7.52-7.93-14.81-15.33-21.49-23.24-10.11-11.96-20.08-24.07-29.59-36.51-8.6-11.25-17.02-22.72-24.61-34.67-8.96-14.11-14.17-29.88-17.28-46.28-3.24-17.11-5.4-34.27-.18-51.43,3.69-12.14,6.55-24.62,11.24-36.37,9.55-23.97,22.3-46.36,36.03-68.19,9.31-14.79,18.67-29.55,27.9-44.39,1.78-2.86,3.96-5.96.99-10.19-1.65,1.19-3.19,2-4.34,3.2-11.92,12.4-24.06,24.61-35.58,37.38-12.88,14.27-25.1,29.04-35.2,45.57-15.32,25.05-29.39,50.54-37.24,79.11-6.18,22.48-9.22,44.92-6,68.36,2.99,21.74,10.39,41.81,19.89,61.17,6.12,12.46,13.98,24.06,20.91,36.14,1.76,3.06,2.93,6.46,4.37,9.7,0,0-.41.4-.61.61h-.04Z"/>
  <path class="st5" d="M406.44,368.51c9.2,10,18.22,20.2,27.21,30.44,20.95,23.85,41.89,47.71,62.81,71.59,1.56,1.78,2.96,3.7,4.65,6.12.22.56-.23.94-.95.82-13.68-14.27-26.66-28.39-39.59-42.58-5.56-6.11-11.14-12.22-16.48-18.51-8.01-9.43-15.88-18.98-23.69-28.59-4.97-6.12-9.71-12.44-14.55-18.67,0,0,.39-.41.58-.62h0Z"/>
  <path class="st5" d="M626.75,1290.89c2.59,1.29,5.32,3.19,9.7,6.22-1.22-5.21-1.73-9.13-3.06-12.74-4.81-13.02-10.28-25.81-14.77-38.94-4.65-13.6-10.33-27.02-10.39-42.28,7.96,32.4,22.18,63.11,32.62,95.09,1.22,3.73,2.17,7.55,2.35,11.71-6.58-5.43-12.33-11.17-16.45-19.06h0Z"/>
  <path class="st5" d="M608.15,1198.05c-4.5-6.02-3.06-13.8-1.58-20.49,2.41-10.9.4-21.25-1.54-31.49-3.48-18.39-13.25-33.98-25.71-47.63-5.69-6.23-12.86-11.12-19.52-17.21,13.27,4.96,22.73,15.17,30.65,26.76,15.84,23.18,23.45,48.51,18.61,76.83-.69,4.07-.5,8.29-.91,13.24h0Z"/>
  <path class="st5" d="M559.51,1080.19c-6.54-2.15-13.39-4.72-20.14-7.54-3.54-1.48-6.88-3.6-11.32-1.22-.21,1.73-.7,3.73-.65,5.72.38,15.91,1.81,31.7,5.69,47.18,2.44,9.75,8.39,17.4,14.91,24.72,2.7,3.04,5.16,6.3,7.71,10.09-13.5-10.29-24.29-23.2-26.56-40.97-2.02-15.84-2.78-31.85-4.01-47.79-.11-1.38.44-2.81.66-4.16,7.5.04,18.74,4.61,33.71,13.98h0Z"/>
  <path class="st5" d="M560.74,1165.98c1.76.66,4.13,1.54,5.51,3.23,8.46,10.43,15.42,21.66,19.08,34.83,5.73,20.62,15.04,39.73,25.43,58.36,2.16,3.87,3.76,8.05,5.56,12.75-5.07-7.62-10.74-15.59-14.93-24.27-5.65-11.7-10.94-23.7-14.97-36.03-5.78-17.65-13.32-34.13-25.67-48.87h-.01Z"/>
  <path class="st5" d="M616.27,1276.31c2.85,3.2,5.79,7.02,8.82,11.47-2.85-3.2-5.79-7.03-8.82-11.47Z"/>
  <path class="st5" d="M559.07,1163.92c.46-.15,1.03.17,1.6,1.01-.49.17-.99-.19-1.6-1.01Z"/>
  <path class="st5" d="M557.37,1162.06c.44-.15,1.01.16,1.64.98-.46.17-.99-.17-1.64-.98Z"/>
  <path class="st5" d="M555.71,1160.14c.43-.13.96.22,1.57,1.07-.44.13-.95-.23-1.57-1.07Z"/>
  <path class="st5" d="M625.14,1288.75c.46-.13,1.01.21,1.56,1.08-.49.14-.98-.23-1.56-1.08Z"/>
  <path class="st1" d="M1048.35,3.27l-.56-.49s.43.17.46.37c.03.2.07.14.1.12h0Z"/>
  <path class="st1" d="M405.36,368.82c5.35,6.53,10.08,12.85,15.05,18.97,7.8,9.61,15.68,19.15,23.69,28.59,5.34,6.3,10.92,12.41,16.48,18.51,12.92,14.18,25.9,28.31,39.36,42.76,3.68,4.86,6.7,9.55,10.07,13.96,9.33,12.22,18.7,24.41,28.24,36.48,15.12,19.13,28.1,39.7,38.95,61.43,12.55,25.15,25.99,49.95,34.77,76.86,3.39,10.39,8.15,20.33,11.56,30.71,5.25,16,10.14,32.12,14.67,48.34,4.05,14.5,7.83,29.1,10.94,43.83,2.8,13.26,4.59,26.74,6.71,40.14,2.35,14.86,4.72,29.71,6.76,44.61,1.08,7.9,1.45,15.89,2.18,23.84.48,5.29.92,10.58,1.55,15.85.87,7.22-.08,14.23-2.56,20.98-2.45,6.67-8.78,9.56-14.26,12.79-12.2,7.2-25.49,10.9-39.84,10.55-4.68-.11-9.47,1.57-14.06,1.08-8.13-.86-16.73-1.43-24.07-4.59-7.4-3.2-11.3-10.67-12.81-19.08-3.01-16.84-6.22-33.66-9.69-50.41-4.07-19.67-8.37-39.3-12.83-58.89-4.14-18.17-8.48-36.29-13.02-54.36-1.87-7.44-4.38-14.73-6.79-22.02-5.67-17.16-11.39-34.3-17.22-51.4-4.21-12.34-8.4-24.68-13.02-36.87-4.69-12.38-9.6-24.7-14.93-36.82-8.68-19.71-17.5-39.37-26.83-58.78-6.77-14.09-14.33-27.8-21.73-41.57-11.9-22.14-24.82-43.66-38.93-64.48-13.29-19.61-26.31-39.4-39.47-59.09-9.35-13.98-18.74-27.93-28.61-42.23-1.93-3.58-3.1-6.98-4.86-10.04-6.93-12.07-14.79-23.67-20.91-36.14-9.5-19.36-16.9-39.43-19.89-61.17-3.23-23.44-.18-45.88,6-68.36,7.85-28.57,21.92-54.05,37.24-79.11,10.11-16.53,22.32-31.31,35.2-45.57,11.52-12.76,23.66-24.98,35.58-37.38,1.15-1.19,2.7-2,4.34-3.2,2.97,4.23.79,7.33-.99,10.19-9.23,14.84-18.59,29.6-27.9,44.39-13.73,21.82-26.48,44.22-36.03,68.19-4.68,11.75-7.54,24.22-11.24,36.37-5.22,17.16-3.06,34.32.18,51.43,3.11,16.4,8.32,32.17,17.28,46.28,7.59,11.95,16,23.42,24.61,34.67,9.51,12.44,19.48,24.55,29.59,36.51,6.68,7.91,13.97,15.31,21.49,23.24h0Z"/>
  <path class="st4" d="M190.52,519.56c-7.95,20.43-16.72,40.64-23.15,61.56-10.34,33.67-19.24,67.79-22.32,103.1-1.74,20.03-4.18,40.04-4.91,60.11-.96,26.37.19,52.71,2.97,79.05,2.43,23.01,6.23,45.66,11.01,68.25,8.26,39.05,21.2,76.6,37.18,113.03,14.07,32.07,31.04,62.72,50.65,91.8,15.09,22.38,30.65,44.47,49.52,63.87,19.65,20.2,39.24,40.51,59.9,59.65,21.32,19.75,45,36.61,69.65,52.13,29.22,18.39,59.93,33.77,91.48,47.61,6.17,2.71,12.53,4.99,19.24,7.65,7.37-12.04,13.03-24.05,16.64-36.92,5.77-20.56,9.68-41.47,11.04-62.83.26-4.12,1.73-8.16,2.84-13.14,1.54,1.78,2.31,2.34,2.64,3.11,1.06,2.45,2.14,4.91,2.89,7.46,6.49,22.16,17.17,42.24,29.79,61.46,8.79,13.38,17.05,27.11,25.26,40.86,5.24,8.77,8.4,18.29,7.85,28.72-.62,11.83-1.37,23.65-1.87,35.49-.4,9.41,2.39,18.12,6.18,26.62,4.34,9.74,11.5,17.2,18.99,24.48,2.13,2.08,5.2,3.7,5.7,8.55-10.34-1.54-20.02-2.62-29.55-4.47-21.77-4.22-43.78-7.67-65.1-13.55-24.83-6.85-49.28-15.29-73.45-24.24-33.15-12.28-64.33-28.8-94.8-46.7-25.87-15.2-50.34-32.38-74.23-50.52-20.36-15.46-39.62-32.19-57.7-50.09-17.26-17.08-33.51-35.29-48.95-54.04-15.8-19.2-31.01-39.03-44.81-59.69-22.75-34.08-41.84-70.29-58.09-107.97-12.25-28.4-22.16-57.61-30.08-87.44-9.65-36.34-16.22-73.24-20.34-110.71-2.47-22.44-2.02-44.95-4.45-67.33-.69-6.36.96-12.95,1.3-19.44.7-13.32.85-26.67,1.94-39.95,1.35-16.49,3.28-32.95,5.22-49.38,3.31-27.98,10-55.33,17.3-82.44,10.43-38.74,24.98-76.12,41.92-112.45,13.3-28.53,28.97-55.83,46.14-82.27,22.03-33.91,46.38-65.95,74.62-94.95,2.02-2.07,4.21-3.97,7.1-6.68,9.05,26.58,22.06,50.14,36.68,73.23-36.12,42.64-67.21,87.65-90.37,138.57-3.39,7.34-6.8,13.96-9.49,20.87l.02-.03Z"/>
</svg>