<?xml version="1.0" encoding="UTF-8"?><svg id="Camada_1" xmlns="http://www.w3.org/2000/svg" viewBox="0 0 576.7 733.14"><defs><style>.cls-1{fill:currentColor;}</style></defs><path class="cls-1" d="M576.62,410.39c-.53-4.22-1.29-8.56-2.9-12.46-2.68-6.5-8.11-10.43-14.86-11.89-3.35-.72-5.73-2.39-7.18-4.97-5.06-9-10.41-17.78-17.9-24.98-4.45-4.28-8.5-9.4-15.31-10.26-1.47-.77-2.93-1.54-4.61-2.55-.46-.26-.71-.28-.95-.3-.96-.28-1.91-.56-3.09-1.09-.46-.27-.69-.29-.93-.31-1.56-.3-3.11-.6-4.94-1.13-.49-.25-.71-.26-.94-.28-.88.08-1.77.24-2.65.24-6.63,0-13.27-.02-20.35-.11-.67-.07-.9-.06-1.13-.05-.39.4-.72,1.07-1.17,1.16-2.98.61-5.98,1.09-9.42,1.59-.7,0-.96.02-1.21.04-.93.49-1.87.98-3.12,1.38-.54-.06-.76-.03-.98,0-.92.51-1.85,1.02-3.24,1.51-4.6,1.9-8.93,3.5-12.84,5.81-9.58,5.63-19.33,11.09-28.34,17.55-9.94,7.13-19.26,15.14-28.62,23.05-6,5.08-11.56,10.68-17.34,16.01-1.87,1.73-3.84,3.36-5.57,4.88-2.5-5.65-5.07-10.57-6.86-15.76-1.95-5.66-4.58-10.86-7.96-15.75-5.5-7.97-10.3-16.52-16.53-23.87-8.75-10.32-18.34-19.9-29.03-28.4-9.22-7.34-18.61-14.4-28.65-20.53-7.37-4.5-14.96-8.65-22.6-12.69-5.37-2.83-10.97-5.22-16.49-7.77-3.76-1.74-7.5-3.53-11.33-5.08-4.02-1.62-8.15-2.98-12.23-4.46-1.04-.36-2.08-.72-3.36-1.29-.45-.23-.66-.24-.87-.26-1.17-.33-2.34-.65-3.72-1.16-.21-.18-.47-.21-.47-.21-2.42-.78-4.83-1.56-7.52-2.56-.64-.3-1.01-.38-1.38-.46-.57-.3-1.13-.59-2-1.07-5.21-3.62-10.44-6.68-14.94-10.59-7.27-6.3-14.31-12.9-20.97-19.83-5.93-6.16-11.31-12.88-16.78-19.47-4.17-5.03-8.33-10.11-12.11-15.44-5.97-8.41-11.65-17.04-17.41-25.6-2.79-4.14-5.65-8.25-8.18-12.55-5.18-8.82-10.25-17.7-15.19-26.65-4.61-8.34-9.09-16.76-13.46-25.23-2.59-5.03-4.83-10.23-7.26-15.34-2.88-6.05-5.81-12.07-8.7-18.11-1.69-3.55-3.34-7.12-5-10.69-1.81-3.89-3.65-7.77-5.38-11.7-1.33-3-2.57-6.03-3.74-9.1-.59-1.53-.83-3.19-1.4-4.73-.5-1.38-1.22-2.67-2.25-4.84-2.25,5.55-4.4,10.16-5.99,14.97-1.4,4.24-2.24,8.67-3.22,13.05-1.34,5.99-2.84,11.96-3.76,18.01-.79,5.25-1.21,10.62-1.18,15.93.05,8.49.62,16.98.97,25.47.37.51,1,1,1.05,1.54.23,2.55.31,5.12.3,8.08-.1.82-.07,1.25-.04,1.68.53.84,1.31,1.61,1.52,2.52.27,1.19.09,2.48.05,4.2-.02.89.01,1.3.05,1.7.42,1.43.84,2.86,1.22,4.81.13,1.78.15,3.09.49,4.31,1.2,4.31,2.46,8.61,3.8,12.88,1.51,4.79,3,9.6,4.75,14.3,1.6,4.29,3.49,8.46,5.34,12.65,1.63,3.67,3.29,7.34,5.12,10.92,1.89,3.7,4.02,7.27,6.02,10.91,2.64,4.8,4.87,9.88,7.95,14.38,7.39,10.81,14.74,21.7,22.92,31.9,8.64,10.78,18.23,20.79,27.41,31.14.96.86,1.92,1.71,2.86,2.8-.01.24.01.19.01.19l4.05,3.43c-.11.33-.21.66-.32.99-1.63-.34-3.26-.69-5.09-1.33-.42-.31-.64-.33-.86-.35-1.04-.36-2.08-.71-3.4-1.32-3.3-1.68-6.52-2.79-9.28-4.6-7.72-5.04-15.72-9.81-22.75-15.73-8.95-7.54-17.25-15.89-25.44-24.27-5.71-5.84-11.1-12.06-16.01-18.59-6.77-9-13.21-18.28-19.31-27.74-6.43-9.98-12.28-20.33-18.45-30.48-.82-1.35-1.99-2.49-3-3.73-.37.16-.74.33-1.11.49.57,9.66,1.14,19.31,1.72,28.97.01.19.12.38.15.57.85,5.13,1.69,10.26,2.54,15.4,2.38,1.12,1.55,3.26,1.54,5.57-.05.85,0,1.25.03,1.64,2.52,1.06.93,3.28,1.34,5.37-.02.69,0,.93.02,1.17.95,2.88,1.89,5.75,2.72,8.98-.08.6-.04.84,0,1.08,2.27.58,1.24,2.48,1.51,4.35,0,.89-.05,1.32.07,1.68,1.99,5.64,3.92,11.31,6.03,16.91,1.75,4.64,3.43,9.33,5.65,13.74,3.35,6.68,7.03,13.21,10.79,19.68,3.89,6.7,7.51,13.65,12.19,19.78,7.51,9.85,15.49,19.38,23.85,28.52,6.61,7.23,13.78,14.04,21.28,20.36,7.05,5.95,14.85,11,22.29,16.47,8.8,6.47,18.23,11.9,27.87,16.99,2.79,1.48,5.53,3.05,8.3,4.58l-.41,1.12c-2.3-.48-4.59-.97-6.89-1.44-3.27-.67-6.59-1.16-9.81-2.01-4.42-1.15-8.77-2.55-13.14-3.87-5.1-1.53-10.29-2.8-15.26-4.68-6.45-2.44-12.83-5.12-19.04-8.13-8.03-3.9-16.19-7.71-23.69-12.5-11.15-7.12-21.57-15.31-30.44-25.27-1.45-1.62-2.76-3.37-4.14-5.06-.42.46-.83.92-1.27,1.77,0,.63.01.87.03,1.11.45.85.9,1.7,1.35,3.01.96,2.79,1.92,5.12,2.89,7.45,1.65,3.99,2.98,8.15,5.01,11.94,4.27,7.97,8.72,15.87,13.45,23.57,4.33,7.04,8.68,14.14,13.84,20.56,6.31,7.86,13.32,15.17,20.29,22.47,6.64,6.94,14.09,12.99,22.22,18.15,6.4,4.06,12.74,8.27,19.37,11.93,5.22,2.88,10.76,5.28,16.34,7.43,4.99,1.92,10.2,3.27,15.36,4.73,3.62,1.02,7.31,1.79,10.98,2.67,1.82.32,3.63.64,5.75,1.21,1.09.3,1.88.34,2.67.38,2.36.27,4.73.53,7.43,1.03,1.53.32,2.72.41,3.92.5h9.71c-2.86,2.04-5.85,3.32-9.86,2.64-1.68-.05-2.85,0-4.01.03-.75.42-1.47,1.14-2.25,1.21-2.05.21-4.13.14-6.75.15-10.01-.03-19.47.18-28.91-.1-4.69-.14-9.44-.81-14.02-1.86-6.15-1.42-12.21-3.3-18.21-5.29-2.98-.99-5.83-2.51-8.59-4.05-3.16-1.76-6.17-3.81-9.24-5.74-.33.35-.66.7-1,1.05,1.07.71,2.35,1.23,3.18,2.16,5.31,5.95,10.23,12.26,15.84,17.91,5.57,5.61,11.74,10.64,17.77,15.78,3.42,2.92,6.91,5.82,10.65,8.3,7.26,4.81,14.65,9.46,22.14,13.9,3.99,2.37,8.21,4.43,12.51,6.19,4.45,1.82,9.12,3.1,13.7,4.62,3.87,1.28,7.65,3.03,11.62,3.74,8.32,1.49,16.58,3.71,25.16,3.27,3.41-.03,6.82-.06,10.78-.09,18.63-.39,35.48-5.85,52.27-12.85,0,.97.16,1.68-.02,2.27-2.27,7.11-4.07,14.43-7.04,21.24-3.88,8.88-8.21,17.66-13.28,25.91-5.33,8.68-11.72,16.72-17.71,24.98-3.04,4.18-6.06,8.4-9.41,12.33-3.93,4.61-8.1,9.04-12.37,13.35-9.39,9.49-18.71,19.06-28.43,28.2-7.65,7.18-15.71,13.96-23.87,20.57-12.88,10.44-25.97,20.61-39.01,30.84-3.61,2.83-7.37,5.48-11.07,8.22-1.27,1.01-2.54,2.01-4.02,3.02-.21,0-.23-.06-.23-.06-.43.45-.85.89-1.51,1.3-.23-.04-.19,0-.19,0-.74.79-1.49,1.58-2.46,2.62.81.11,1.41.19,2.47.29,3.96-1.37,7.45-2.79,10.97-4.15,6.47-2.51,13.02-4.85,19.42-7.53,6.04-2.53,11.92-5.44,17.89-8.14,8.76-3.96,17.57-7.81,26.31-11.83,5.69-2.62,11.28-5.46,16.93-8.17,3.58-1.72,7.19-3.38,11.3-5.3-.21,1.22-.14,2.05-.5,2.63-2.21,3.62-4.42,7.24-6.82,10.74-5.22,7.6-11.45,14.08-20.15,17.77-.74.31-1.2,1.3-1.79,1.98,3.02-.05,5.73-.46,8.29-1.31,8.67-2.84,16.17-7.92,22.45-14.24,6.27-6.31,11.39-13.77,17.01-20.72.46-1.97,1.27-3.61,3.91-4.35-.86,3.11-1.58,5.72-2.52,8.64-1.63,3.52-3.04,6.72-4.45,9.92-.42,1.24-.84,2.49-1.23,3.96.02.23.06.26.07.28.66,0,1.3-.03,2.39-.08,4.29-3.11,8.35-5.95,11.92-9.31,5.52-5.18,10.93-10.5,15.98-16.14,8.1-9.05,15.85-18.41,23.77-27.63,1.05-1.23,2-2.75,3.35-3.47,5.82-3.1,11.93-5.7,17.66-8.96,11.09-6.3,22.12-12.72,32.93-19.47,8.6-5.37,16.91-11.21,25.22-17.03,6.35-4.45,12.67-8.98,18.69-13.86,6.99-5.67,13.72-11.68,20.43-17.68,7.45-6.66,14.98-13.27,22.08-20.3,8.32-8.24,16.3-16.82,24.26-25.41,4.23-4.57,8.22-9.37,12.12-14.23,4.84-6.03,9.54-12.17,14.17-18.36,4.24-5.67,8.5-11.35,12.38-17.26,4.2-6.4,8.08-13.02,11.87-19.68,3.36-5.9,7.34-11.7,9.31-18.08,1.52-4.92,3.83-8.56,7.12-12.29,7.21-8.18,16.71-11.04,26.81-12.36,7.15-.94,14.3.46,21.29,2.21,3.8.95,5.26.22,4.79-3.52ZM122.66,282.43c-1.05-1.28-2.03-2.13-3.01-2.99-.3-.42-.52-.43-.74-.44-1.36-.88-2.4-1.7-3.43-2.51-.02-.43.05-.52.05-.52-.6-.25-1.13-.57-1.65-.9,0-.42-.09-.31-.09-.31-.36-.37-.78-.61-1.21-.86-11.22-10.59-20.74-22.26-29.43-34.55-4.96-7.02-8.96-14.73-13.12-22.29-3.31-6.01-6.4-12.16-9.23-18.41-2.39-5.29-4.37-10.78-6.36-16.24-1.98-5.45-3.9-10.94-5.53-16.51-1.36-4.66-2.28-9.46-3.36-14.21-.46-2-.83-4.01-1.25-6.02-.42-.94-1.11-1.32-1.17-1.78-.76-5.57-1.42-11.15-2.11-16.73.37-.06.74-.11,1.11-.17,1.16,4.48,2.31,8.96,3.47,13.43.56,2.75,1.11,5.02,1.83,7.24,1.73,5.34,3.46,10.68,5.36,15.96,1.95,5.42,4.1,10.78,6.18,16.16.9,2.33,1.72,4.7,2.78,6.95,2.84,6.08,5.68,12.16,8.73,18.13,2.76,5.4,5.9,10.59,8.67,15.98,4.74,9.22,10.68,17.67,16.67,26.06,5.47,7.67,11.31,15.09,17.18,22.46,2.21,2.78,4.99,5.1,7.51,7.64,1.35,1.24,2.35,2.25,3.34,3.25,2.04,2.06,3.98,3.73,5.92,5.4,2.58,2.46,5.01,4.55,7.44,6.64-.3.37-.6.75-.91,1.12-2.17-1.8-4.34-3.61-6.51-5.41-2.39-2.13-4.77-3.85-7.15-5.58ZM146.55,391.93c-1-.76-1.88-1.1-2.76-1.44-.38-.44-.63-.46-.89-.48-.79-.33-1.23-.52-1.66-.72-.47-.48-.88-.56-1.3-.64-.81-.5-1.26-.79-1.71-1.07-3.45-2.07-6.91-3.55-10.12-5.46-6.38-3.79-12.96-7.38-18.85-11.86-9.13-6.94-17.98-14.29-26.52-21.95-5.93-5.32-11.35-11.26-16.59-17.28-4.7-5.39-9.04-11.12-13.17-16.96-3.72-5.26-7.13-10.75-10.32-16.35-3.44-6.04-6.52-12.29-9.65-18.49-1.13-2.23-1.98-4.61-2.95-6.92-.98-2.36-1.94-4.24-2.9-6.13.06-.71.03-.96,0-1.21-.4-.65-.77-.93-1.13-1.21-1.03-3.6-2.07-6.82-3.11-10.04-.17-.56-.64-.57-.71-.74-1.13-3.06-2.62-6.08-2.1-9.44.31-.11.62-.22.93-.33,1.2,3.01,2.4,6.02,3.59,9.03,1.59,4.16,3.29,7.84,5,11.52,2.73,5.49,5.69,10.79,8.83,15.98,3.39,5.59,6.78,11.2,10.49,16.58,3.84,5.59,7.91,11.04,12.15,16.34,4.75,5.96,9.59,11.87,14.77,17.45,5.25,5.66,10.86,11.01,16.49,16.3,6.94,6.52,13.94,12.99,21.17,19.18,4.75,4.07,9.91,7.67,14.97,11.37,4.65,3.41,9.41,6.69,14.12,10.03,2.33,1.41,4.29,2.65,6.24,3.88,2.53,1.5,4.88,2.63,7.23,3.76l-.52,1.27c-3.24-.67-6.19-2.17-9.02-4ZM182.55,477.29c-7.69-.48-14.89-2.33-22.02-4.54-6.25-1.94-12.7-3.41-18.67-5.98-7.86-3.38-15.69-7.1-22.91-11.66-9.86-6.22-19.3-13.15-28.59-20.21-4.35-3.3-7.94-7.6-11.87-11.44-.54-.73-1.06-1.04-1.58-1.34.08-.38-.12-.56-.12-.56-.52-.53-.9-.83-1.27-1.13-.03-.41-.03-.41-.03-.41-1.39-1.23-2.77-2.47-4.15-3.7-.45-.71-.84-1-1.23-1.3.02-.4-.07-.58-.07-.58-2.01-2.28-3.99-4.36-5.98-6.44-1.7-2.18-3.38-3.92-5.06-5.67.39-.39.78-.79,1.18-1.18,1.86,1.79,3.71,3.58,5.57,5.37,1.85,2.25,3.66,4.08,5.48,5.91.1.41.09.41.09.41.42.24.83.5,1.25.75,2.56,2.68,5.04,4.98,7.51,7.27.48.52.85.64,1.23.76.51.61.9.82,1.3,1.04,7.04,5.57,13.85,11.05,21.06,15.93,7.32,4.96,14.87,9.64,22.63,13.86,8.4,4.57,17.06,8.73,25.81,12.59,5.59,2.47,11.53,4.18,17.38,6.06,5.09,1.63,10.25,3.01,15.39,4.5,3.18.54,5.9,1.03,8.63,1.52-1.78,1.93-8.26,2.02-10.93.17ZM285.54,531.21c-3.3,1.37-6.07,2.7-8.84,4.04-.72-.02-.96.03-1.21.07-1.22.45-2.05.89-2.89,1.33-6.18,2.03-11.94,3.85-18.08,4.3-4.5.33-8.97,1.14-13.46,1.61-3.71.39-7.48,1.05-11.16.76-7.84-.62-15.73-1.27-23.41-2.85-7.98-1.64-15.88-3.99-23.53-6.78-6.92-2.52-13.48-6.04-20.17-9.19-1.97-.93-3.83-2.09-5.74-3.15-2.57-1.47-4.97-2.47-7.17-3.8-2.09-1.26-3.98-2.85-5.74-4.89,1.55.45,3.15.79,4.65,1.38,3.48,1.37,6.92,2.84,10.36,4.32.28.12.4.63.6.95,3.64,1.45,7.19,2.41,10.7,3.51,3.76,1.19,7.44,2.65,11.22,3.75,5.23,1.52,10.51,2.92,15.81,4.19,3.04.73,6.16,1.14,9.25,1.61,5.74.86,11.48,1.66,17.23,2.48,1.18.17,2.36.36,3.54.37,6.86.09,13.73.38,20.57.11,7.52-.29,15.03-1.06,22.53-1.75,2.31-.21,4.58-.83,6.87-1.27,2.15-.43,3.77-.86,5.39-1.3,1.32-3.07,3.16-1.17,4.56-1.36.08.33.16.66.24.98-.71.19-1.41.38-2.12.56ZM292.82,350.88c-7.77-6.51-15.62-12.96-23.83-18.9-7.74-5.6-15.94-10.58-24.03-15.67-4.08-2.57-8.39-4.78-12.6-7.15-2.04-1.18-3.81-2.03-5.57-2.88-.14-.39-.09-.43-.09-.43-1-.32-1.96-.7-2.93-1.08-.45-.39-.69-.43-.94-.47-.8-.42-1.29-.63-1.78-.85-1.57-.76-2.8-1.29-4.03-1.82-2.25-1.07-4.11-1.98-5.97-2.9-2.8-1.12-5.16-2.15-7.53-3.18,3.43-1.7,6.06-.05,8.72,1.47,2.33,1.23,4.51,2.07,6.68,2.9.61.43,1.02.47,1.42.52.9.4,1.42.65,1.95.9,1.03.54,1.82.77,2.61,1,1.44.9,2.81,1.37,4.17,1.84.21.37.42.36.42.36.96.35,1.73.61,2.5.88.36.45.61.47.86.5,1.03.45,1.7.78,2.37,1.11.36.3.55.28.75.31,1.19.47,2.12.84,3.04,1.21,4.22,2.22,8.31,3.98,12.22,6.08,6.6,3.54,13.12,7.23,19.61,10.96,11.37,6.54,21.97,14.19,31.99,22.65,9.69,8.19,18.9,16.88,26.36,27.23,4.52,6.27,9.37,12.39,13.05,19.13,3.79,6.93,6.33,14.54,9.42,21.85,2.34,3.82,2.83,7.56,2.89,11.39-.24.07-.49.15-.73.22-1.14-2.54-2.28-5.08-3.43-7.63-2.38-4.57-4.72-8.7-7.23-12.74-1.94-3.11-3.91-6.23-6.17-9.11-5.34-6.83-10.7-13.67-16.36-20.23-4.25-4.93-8.9-9.52-13.53-14.1-4.64-4.59-9.29-9.2-14.29-13.38ZM494.73,448.58c-.47.33-.48.58-.49.82-.41.82-.71,1.28-1.01,1.74-1.7,2.61-3.02,5.11-4.34,7.61-.39.16-.41.41-.41.41-.32.82-.57,1.41-.81,1.99-.46.33-.5.58-.53.82-.5.96-.88,1.57-1.26,2.18-7.63,14.04-16.79,26.69-26.5,38.89-7.17,9.01-14.8,17.72-22.8,26-8.63,8.93-17.75,17.42-27.02,25.69-6.33,5.65-13.23,10.67-19.98,15.82-3.63,2.77-7.51,5.19-11.25,7.81-6.14,4.3-12.07,8.92-18.41,12.89-10.31,6.46-20.84,12.56-31.35,18.69-3.17,1.85-6.58,3.3-9.88,4.94-1.57.9-2.58,2.16-3.84,2.47-3.36.85-5.93,3.22-9.1,4.34-.86.31-1.87.2-2.81.29-.1-.25-.2-.5-.3-.75,4.4-2.56,8.79-5.13,13.19-7.69.45.02.52.09.52.09.26-.41.6-.76.93-1.11.71-.12,1.01-.25,1.32-.37.71-.59,1.13-1.04,1.55-1.49,5.76-3.59,11.11-7.15,16.39-10.81,7.54-5.24,15.17-10.36,22.51-15.88,10.25-7.71,20.26-15.73,30.38-23.61.98-.76,1.95-1.53,2.92-2.29.77-.57,1.12-1.09,1.47-1.6.4.12.59-.03.59-.03.48-.53.78-.91,1.08-1.28.41,0,.36-.08.36-.08,1.49-1.35,2.93-2.77,4.36-4.19,9.58-8.45,18.84-16.8,27.82-25.44,7.76-7.48,15.56-14.98,22.69-23.05,9.2-10.41,17.76-21.39,26.55-32.15,2.63-3.22,5.11-6.55,7.66-9.83.11-.49.01-.59-.08-.69.15-.04.3-.07.45-.11.27-.13.29-.24.31-.36.51-.92.91-1.51,1.31-2.1.36-.1.36-.1.36-.1.4-.85.8-1.7,1.2-2.55,1.76-2.77,3.35-5.15,4.94-7.52,1.14-1.54,1.85-3.03,2.57-4.51.51.24,1.02.48,1.52.72-.92,1.79-1.85,3.58-2.77,5.37ZM510.23,376.03c-.35.14-.63.45-.94.69-3.73.17-6.42-1.07-7.81-4.04-1.24-2.64-1.27-5.78.97-7.73,1.71-1.49,4.48-2.81,6.6-2.57,3.6.4,5.78,3.29,6.18,6.99.3,2.73-1.91,5.44-5.01,6.66Z"/><path class="cls-1" d="M402.7,246.76c-1.49-6.75-2.71-13.58-4.66-20.2-1.63-5.56-3.86-11-6.34-16.24-2.37-5-5.18-9.83-8.22-14.45-3.96-6-8.08-11.94-12.63-17.5-6.58-8.05-14.2-15.13-22.42-21.5-7.51-5.82-15.41-11.15-22.82-17.09-9.86-7.9-19.51-16.06-29.06-24.32-6.13-5.31-12.1-10.83-17.84-16.56-7.77-7.77-15.42-15.69-22.8-23.84-5.9-6.51-11.55-13.27-16.87-20.26-5.54-7.27-10.67-14.86-15.78-22.45-3.14-4.66-6.07-9.47-8.79-14.39-3.27-5.9-6.22-11.97-9.3-17.97-1,3.03-1.88,6.21-1.71,9.33.62,10.95,1.75,21.88,2.4,32.83.44,7.41,2.15,14.5,4.28,21.53,1.52,5.02,2.54,10.28,4.75,14.99,3.7,7.88,7.81,15.62,12.42,23.01,4.15,6.66,8.78,13.14,13.97,19.01,6.84,7.72,14.43,14.78,21.72,22.1,10.76,10.8,22.73,20.53,30.56,33.93,2.28,3.91,5.4,7.64,5.13,12.65.36.12.74.22,1.07.4.04.02-.15.47-.23.72-.3-.22-.6-.44-1.1-.89-2.33-2.12-4.37-4.15-6.62-5.91-7.24-5.65-15.78-8.91-24.02-12.68-5.9-2.7-12.24-4.53-17.88-7.66-8.92-4.94-17.74-10.19-24.79-17.81-6.3-6.82-12.92-13.39-18.75-20.59-4.44-5.49-7.85-11.82-11.78-17.73-1.01-1.52-2.24-2.89-3.83-4.92-.11,1.8-.21,2.68-.22,3.56-.1,10.78.55,21.46,3.99,31.81,1.65,4.95,2.56,10.21,4.74,14.9,4.19,9.02,9.55,17.46,16.3,24.78,5.74,6.22,11.91,12.11,18.34,17.62,6.91,5.93,14.19,11.47,21.6,16.79,7.55,5.43,15.56,10.22,23.16,15.59,6.86,4.84,13.69,9.79,20.05,15.26,4.4,3.79,8.34,8.26,11.78,12.95,3.05,4.17,5.51,8.89,7.49,13.68,1.32,3.18,1.35,6.89,1.93,10.16-5.58-6.06-10.84-12.08-16.42-17.78-9.23-9.43-20.99-15.1-32.5-21.05-6.65-3.43-13.52-6.43-20.23-9.75-4.75-2.35-9.47-4.79-14.09-7.38-7.57-4.24-14.48-9.43-20.66-15.52-3.26-3.21-6.33-6.63-9.88-10.37,0,1.36-.18,2.18.03,2.89,1.42,4.74,2.65,9.57,4.5,14.14,1.87,4.62,4.05,9.19,6.69,13.4,4.63,7.39,9.11,15.02,14.75,21.61,10.1,11.8,22.08,21.67,35.2,30.03,14.08,8.98,28.51,17.42,42.37,26.71,10.33,6.92,20.3,14.47,29.88,22.4,8.49,7.03,15.89,15.41,21.44,24.92,4.99,8.56,8.62,17.91,12.97,27.19.15-.2.76-.82,1.13-1.56,3.45-6.91,7.01-13.77,10.21-20.79,2.51-5.51,4.68-11.2,6.76-16.89,1.74-4.76,3.27-9.6,4.62-14.49,1.25-4.52,2.18-9.12,3.15-13.71,1.36-6.41,2.81-12.8,3.87-19.26.7-4.3.93-8.7,1.12-13.06.51-11.51.38-23-2.11-34.33ZM390.24,293.16c-.04.29-.21.57-.24.86-.57,4.39-1.13,8.78-1.7,13.17-.35,2.25-.64,4-.94,5.74-.49.55-.5.97-.52,1.4-.05,1.06.01,1.7.08,2.35-.06.77.16,1.16.05,1.33-3.08,4.56-1.79,10.6-5.12,15.06-.29-.04-.57-.09-.86-.13.95-4.91,1.9-9.83,2.85-14.74.59-2.25.83-4.2,1.07-6.14.48-1.95.52-3.73.57-5.51,0-10.36-.04-20.19-.09-30.03.08-1.77.03-2.97-.02-4.18-.43-2.73-.87-4.93-1.3-7.14-.84-5.05-1.72-9.56-2.71-14.04-.9-4.08-1.65-8.22-2.95-12.18-1.91-5.78-4.22-11.43-6.41-17.12-5.08-13.2-12.33-25.17-20.75-36.47-.98-1.32-1.93-2.66-2.89-3.99-.48-.84-.93-1.25-1.37-1.66,0-.41.08-.47.08-.47-1.02-.81-1.98-1.7-2.93-2.6,0-.43-.04-.43-.04-.43-.97-1.06-1.96-2.1-2.95-3.15-.44-.88-.86-1.32-1.29-1.77,0-.41.03-.44.03-.44-.44-.22-.89-.49-1.34-.76-1.2-1.2-2.29-1.99-3.37-2.78,3-.77,4.66.83,6.04,2.97.58.74,1.1,1.04,1.63,1.35.06.4.06.4.06.4.4.27.8.53,1.2.8.58.87,1.16,1.33,1.74,1.79,2.05,2.38,3.93,4.42,5.9,6.36,1.2,1.18,2.76,2.05,3.78,3.36,3.33,4.28,6.55,8.65,9.7,13.07,2.71,3.81,5.47,7.6,7.83,11.63,2.17,3.72,3.92,7.69,5.68,11.63,2.14,4.8,4.35,9.6,6.05,14.56,1.51,4.43,2.53,9.06,3.46,13.66.9,4.42,1.49,8.91,2.08,13.39,1.34,10.29,1.44,20.58-.06,30.87Z"/></svg>
